<?xml version="1.0" standalone="no"?>
<!DOCTYPE svg PUBLIC "-//W3C//DTD SVG 20010904//EN"
 "http://www.w3.org/TR/2001/REC-SVG-20010904/DTD/svg10.dtd">
<svg version="1.0" xmlns="http://www.w3.org/2000/svg"
 width="273.000000pt" height="182.000000pt" viewBox="0 0 273.000000 182.000000"
 preserveAspectRatio="xMidYMid meet">

<g transform="translate(0.000000,182.000000) scale(0.100000,-0.100000)"
fill="#000000" stroke="none">
<path d="M1062 1749 c-209 -16 -451 -54 -479 -75 -23 -18 -171 -319 -161 -329
2 -3 20 -2 40 1 33 6 36 9 47 59 36 160 192 263 471 311 179 30 565 29 809 -3
25 -3 44 -3 41 0 -3 3 -57 13 -120 22 -143 19 -484 27 -648 14z"/>
<path d="M1858 1703 c7 -3 16 -2 19 1 4 3 -2 6 -13 5 -11 0 -14 -3 -6 -6z"/>
<path d="M1135 1691 c-35 -4 55 -9 215 -13 413 -10 578 -44 673 -139 41 -41
48 -52 45 -81 -2 -27 -10 -36 -43 -53 -38 -19 -61 -20 -550 -21 -541 -1 -643
-7 -845 -50 -181 -38 -374 -111 -445 -169 -11 -9 5 -4 35 11 259 127 663 184
1298 184 180 0 401 -5 490 -11 90 -6 166 -8 169 -6 16 17 -110 244 -159 284
-17 15 -262 50 -438 63 -141 10 -343 11 -445 1z"/>
<path d="M262 1451 c-41 -5 -58 -13 -73 -31 -39 -52 -22 -74 66 -85 33 -4 74
-13 92 -20 27 -11 34 -11 44 1 9 12 6 14 -17 14 -16 0 -42 9 -59 20 -16 11
-41 20 -55 20 -24 0 -50 16 -50 30 0 11 50 30 79 30 32 0 44 -11 58 -55 l10
-30 7 44 c10 62 -8 73 -102 62z"/>
<path d="M2238 1443 c-2 -5 -1 -28 2 -53 6 -41 7 -43 14 -18 13 43 40 61 80
54 61 -12 74 -56 17 -56 -16 0 -40 -9 -54 -20 -14 -11 -40 -23 -57 -26 -17 -4
-28 -10 -23 -15 5 -5 26 -2 48 6 22 8 63 14 91 15 54 0 74 12 74 45 -1 25 -18
48 -47 63 -24 13 -140 16 -145 5z"/>
<path d="M1146 1320 c-66 -5 -151 -14 -190 -20 -121 -18 -297 -52 -293 -57 3
-2 72 5 153 16 248 34 394 43 749 44 215 0 311 3 260 8 -139 13 -555 18 -679
9z"/>
<path d="M1945 1291 c30 -4 -3 -11 -130 -24 -193 -21 -255 -32 -281 -52 -18
-13 -18 -14 1 -29 40 -31 165 -76 240 -87 107 -16 212 0 397 60 199 65 238 68
281 25 14 -14 31 -42 38 -62 6 -21 15 -41 20 -47 14 -14 -17 83 -33 103 -86
111 -98 118 -148 82 -118 -84 -378 -129 -540 -94 -44 9 -88 23 -98 30 -39 31
29 49 293 78 l110 12 -64 7 c-35 4 -78 6 -95 6 -27 -2 -26 -3 9 -8z"/>
<path d="M628 1233 c7 -3 16 -2 19 1 4 3 -2 6 -13 5 -11 0 -14 -3 -6 -6z"/>
<path d="M200 745 l0 -245 50 0 50 0 0 85 c0 71 3 87 17 92 10 4 24 -3 40 -21
19 -22 23 -38 23 -92 l0 -64 45 0 45 0 0 73 c0 51 -5 82 -19 107 -18 33 -18
35 0 65 24 38 26 143 4 185 -24 46 -62 60 -165 60 l-90 0 0 -245z m166 127
c17 -11 22 -35 13 -59 -6 -18 -16 -23 -44 -23 -35 0 -35 0 -35 45 0 42 2 45
28 45 15 0 32 -4 38 -8z"/>
<path d="M870 745 l0 -245 115 0 115 0 0 60 0 60 -65 0 -65 0 0 35 0 35 65 0
65 0 0 55 0 55 -65 0 -65 0 0 40 0 40 65 0 65 0 0 55 0 55 -115 0 -115 0 0
-245z"/>
<path d="M1500 745 l0 -245 50 0 49 0 3 113 3 112 41 -110 42 -110 41 -3 41
-3 0 245 0 246 -50 0 -49 0 -3 -107 -3 -108 -40 107 -40 108 -42 0 -43 0 0
-245z"/>
<path d="M2170 930 l0 -60 40 0 40 0 0 -185 0 -185 50 0 50 0 0 185 0 185 45
0 45 0 0 60 0 60 -135 0 -135 0 0 -60z"/>
<path d="M1231 389 c-13 -5 -39 -23 -58 -40 -20 -17 -42 -28 -51 -25 -9 3
-224 8 -477 12 l-460 6 40 -36 40 -36 430 6 430 7 1 -56 c0 -68 31 -118 90
-147 39 -19 62 -20 680 -20 l639 0 39 23 c58 33 79 67 83 134 5 72 -24 127
-82 160 l-40 23 -640 -1 c-383 0 -650 -4 -664 -10z m209 -89 l6 -45 8 48 c11
62 38 63 46 2 4 -30 7 -35 13 -22 4 10 7 30 7 43 0 17 6 24 20 24 24 0 24 8 4
-101 -13 -72 -20 -89 -34 -89 -11 0 -20 11 -26 33 l-8 32 -3 -32 c-5 -40 -40
-47 -47 -10 -32 149 -33 170 -8 165 12 -2 19 -16 22 -48z m220 15 c0 -24 5
-35 15 -35 10 0 15 11 15 35 0 28 4 35 20 35 19 0 20 -7 20 -95 0 -88 -1 -95
-20 -95 -16 0 -20 7 -20 35 0 24 -5 35 -15 35 -10 0 -15 -11 -15 -35 0 -28 -4
-35 -20 -35 -19 0 -20 7 -20 95 0 88 1 95 20 95 16 0 20 -7 20 -35z m230 10
c0 -20 -5 -25 -25 -25 -14 0 -25 -4 -25 -10 0 -5 11 -10 25 -10 20 0 25 -5 25
-25 0 -20 -5 -25 -25 -25 -14 0 -25 -4 -25 -10 0 -5 11 -10 25 -10 20 0 25 -5
25 -25 0 -23 -4 -25 -45 -25 l-45 0 0 95 0 95 45 0 c41 0 45 -2 45 -25z m160
0 c0 -20 -5 -25 -25 -25 -14 0 -25 -4 -25 -10 0 -5 11 -10 25 -10 20 0 25 -5
25 -25 0 -20 -5 -25 -25 -25 -14 0 -25 -4 -25 -10 0 -5 11 -10 25 -10 20 0 25
-5 25 -25 0 -23 -4 -25 -45 -25 l-45 0 0 95 0 95 45 0 c41 0 45 -2 45 -25z
m110 -45 c0 -68 1 -70 25 -70 20 0 25 -5 25 -25 0 -23 -4 -25 -45 -25 l-45 0
0 95 c0 88 1 95 20 95 18 0 20 -7 20 -70z m212 44 c15 -31 -6 -51 -29 -28 -8
8 -20 11 -26 7 -7 -4 -4 -11 9 -19 51 -35 57 -42 57 -73 0 -37 -15 -51 -56
-51 -34 0 -61 45 -36 60 8 6 15 6 17 0 2 -6 13 -10 25 -10 21 1 21 1 -3 20
-49 37 -60 50 -60 69 0 52 81 72 102 25z"/>
</g>
</svg>
