<?xml version="1.0" standalone="no"?>
<!DOCTYPE svg PUBLIC "-//W3C//DTD SVG 20010904//EN"
 "http://www.w3.org/TR/2001/REC-SVG-20010904/DTD/svg10.dtd">
<svg version="1.0" xmlns="http://www.w3.org/2000/svg"
 width="500.000000pt" height="500.000000pt" viewBox="0 0 500.000000 500.000000"
 preserveAspectRatio="xMidYMid meet">

<g transform="translate(0.000000,500.000000) scale(0.100000,-0.100000)"
fill="#000000" stroke="none">
<path d="M1150 2747 c0 -3 23 -25 52 -49 l52 -43 181 0 c176 0 180 0 144 17
-110 49 -189 68 -308 75 -67 3 -121 4 -121 0z"/>
<path d="M963 2717 c-36 -13 -37 -19 -14 -59 l16 -28 118 0 c109 0 117 1 108
18 -12 22 -49 56 -78 71 -28 14 -108 13 -150 -2z"/>
<path d="M804 2668 l-19 -23 23 19 c21 18 27 26 19 26 -2 0 -12 -10 -23 -22z"/>
<path d="M842 2660 c-23 -17 -42 -32 -42 -35 0 -3 32 -5 70 -5 51 0 70 4 70
13 0 13 -40 57 -52 57 -3 0 -24 -14 -46 -30z"/>
<path d="M744 2618 l-19 -23 23 19 c21 18 27 26 19 26 -2 0 -12 -10 -23 -22z"/>
<path d="M1465 2633 c103 -9 252 -36 275 -50 14 -9 38 -27 54 -42 l28 -26 -15
31 c-9 17 -13 34 -10 38 4 3 38 6 77 7 59 1 66 2 41 10 -63 19 -261 39 -373
37 -64 -1 -99 -3 -77 -5z"/>
<path d="M2450 2496 l0 -136 25 0 c23 0 25 3 25 50 0 36 4 50 14 50 7 0 23
-22 34 -50 18 -42 25 -50 47 -50 28 0 28 6 0 73 -11 26 -10 32 6 48 13 13 19
33 19 62 0 60 -22 78 -105 84 l-65 6 0 -137z m118 56 c5 -30 -14 -52 -44 -52
-21 0 -24 5 -24 41 0 39 1 40 33 37 25 -2 33 -8 35 -26z"/>
<path d="M3213 2608 c3 -13 14 -74 23 -136 l18 -113 35 3 36 3 17 94 c9 51 19
95 21 97 2 2 12 -41 22 -96 l18 -100 33 0 c38 0 35 -7 59 135 21 125 20 135
-9 135 -21 0 -25 -6 -30 -45 -3 -25 -9 -66 -12 -92 -8 -57 -15 -43 -34 65
l-13 72 -33 0 c-36 0 -31 9 -55 -118 -6 -34 -14 -61 -16 -58 -2 2 -10 42 -16
87 -12 82 -13 84 -41 87 -25 3 -28 1 -23 -20z"/>
<path d="M3550 2495 l0 -135 25 0 c23 0 24 3 27 68 3 64 4 67 28 67 24 0 25
-3 28 -67 3 -65 4 -68 27 -68 24 0 25 2 25 73 0 94 -12 112 -68 104 l-42 -5 0
49 c0 46 -2 49 -25 49 l-25 0 0 -135z"/>
<path d="M4150 2495 l0 -135 25 0 25 0 0 135 0 135 -25 0 -25 0 0 -135z"/>
<path d="M3080 2565 c0 -14 -4 -25 -10 -25 -5 0 -10 -9 -10 -20 0 -11 4 -20 9
-20 5 0 11 -24 13 -54 6 -67 20 -86 64 -86 27 0 34 4 34 20 0 11 -7 20 -15 20
-39 0 -47 93 -7 98 14 2 22 10 22 22 0 12 -8 20 -22 22 -15 2 -24 11 -26 26
-5 34 -52 31 -52 -3z"/>
<path d="M1575 2569 c-11 -17 26 -49 57 -49 34 0 37 22 6 44 -26 18 -54 21
-63 5z"/>
<path d="M1680 2562 c0 -11 8 -26 18 -35 25 -23 62 -22 62 1 0 14 2 15 10 2 6
-9 10 -10 10 -3 0 14 -61 53 -84 53 -9 0 -16 -8 -16 -18z"/>
<path d="M1818 2575 c-8 -9 14 -56 34 -72 7 -6 49 -14 92 -18 l79 -8 -6 34 -6
34 15 -27 c17 -33 24 -36 17 -8 -11 40 -62 65 -143 68 -41 2 -78 1 -82 -3z"/>
<path d="M2680 2520 c-30 -30 -28 -109 3 -138 42 -40 137 -22 137 26 0 15 -32
16 -47 1 -14 -14 -55 -8 -61 9 -3 8 12 12 52 12 l56 0 0 33 c0 53 -24 77 -76
77 -31 0 -50 -6 -64 -20z m78 -22 c19 -19 14 -28 -18 -28 -16 0 -30 4 -30 8 0
9 21 32 30 32 3 0 11 -5 18 -12z"/>
<path d="M2860 2450 c0 -89 0 -90 25 -90 24 0 25 3 25 59 0 61 16 89 45 77 11
-4 15 -22 15 -71 0 -63 1 -65 25 -65 25 0 25 1 25 78 0 87 -8 102 -55 102 -17
0 -36 -5 -43 -12 -9 -9 -12 -9 -12 0 0 7 -11 12 -25 12 -25 0 -25 -1 -25 -90z"/>
<path d="M3771 2514 c-13 -16 -21 -41 -21 -64 0 -58 31 -90 86 -90 43 0 84 24
84 50 0 13 -43 13 -57 -1 -14 -14 -55 -8 -61 9 -3 9 13 12 58 12 l63 0 -6 36
c-9 53 -32 74 -83 74 -34 0 -47 -5 -63 -26z m73 -10 c28 -11 18 -34 -14 -34
-32 0 -37 9 -18 28 14 14 12 14 32 6z"/>
<path d="M3970 2520 c-30 -30 -28 -109 3 -138 42 -40 137 -22 137 26 0 15 -32
16 -47 1 -14 -14 -55 -8 -61 9 -3 8 12 12 52 12 l56 0 0 33 c0 53 -24 77 -76
77 -31 0 -50 -6 -64 -20z m78 -22 c19 -19 14 -28 -18 -28 -16 0 -30 4 -30 8 0
9 21 32 30 32 3 0 11 -5 18 -12z"/>
<path d="M4268 2529 c-21 -12 -24 -62 -5 -77 6 -5 27 -13 44 -17 18 -3 35 -11
39 -16 9 -15 -27 -23 -47 -11 -28 18 -49 14 -49 -8 0 -25 29 -40 74 -40 40 0
76 28 76 59 0 25 -37 51 -72 51 -18 0 -28 5 -28 14 0 23 20 29 39 12 36 -33
73 -2 39 32 -15 15 -86 15 -110 1z"/>
<path d="M1407 2512 c30 -29 36 -59 31 -137 -3 -49 -9 -70 -26 -88 -20 -22
-21 -25 -7 -31 31 -11 70 -6 95 14 l25 20 -22 0 c-18 0 -23 6 -24 28 l0 27
-10 -25 c-12 -29 -38 -60 -51 -60 -6 0 2 14 16 30 52 62 39 189 -24 228 l-25
16 22 -22z"/>
<path d="M810 2451 c0 -5 7 -17 16 -25 12 -13 35 -16 107 -14 84 2 86 2 22 5
-87 4 -109 9 -129 29 -9 8 -16 11 -16 5z"/>
<path d="M898 2383 c17 -2 47 -2 65 0 17 2 3 4 -33 4 -36 0 -50 -2 -32 -4z"/>
<path d="M1510 2346 l0 -34 138 -7 c141 -8 344 -1 397 13 17 5 31 16 33 25 3
15 -2 16 -40 10 -24 -5 -118 -8 -209 -8 -145 0 -169 2 -186 18 -14 12 -36 17
-76 17 l-57 0 0 -34z"/>
<path d="M860 2315 c41 -8 111 -13 155 -13 76 1 73 1 -50 13 -164 17 -201 17
-105 0z"/>
<path d="M1855 2280 l-80 -6 39 -18 c46 -21 92 -16 128 14 15 13 18 19 8 18
-8 -1 -51 -4 -95 -8z"/>
</g>
</svg>
